<svg width="961" height="512" viewBox="0 0 961 512" fill="none" xmlns="http://www.w3.org/2000/svg">
<g id="Logo">
<g id="Mask Group">
<mask id="mask0" mask-type="alpha" maskUnits="userSpaceOnUse" x="224" y="0" width="512" height="512">
<g id="sound-waves 1">
<g id="10">
<g id="Group">
<path id="Vector" d="M718.971 185.614C709.565 185.614 701.942 193.237 701.942 202.643V309.357C701.942 318.763 709.565 326.386 718.971 326.386C728.377 326.386 736 318.768 736 309.357V202.643C736 193.237 728.377 185.614 718.971 185.614Z" fill="#20169A"/>
</g>
</g>
<g id="9">
<g id="Group_2">
<path id="Vector_2" d="M665.614 136.231C656.208 136.231 648.585 143.854 648.585 153.26V358.747C648.585 368.153 656.208 375.776 665.614 375.776C675.02 375.776 682.643 368.153 682.643 358.742V153.259C682.643 143.854 675.02 136.231 665.614 136.231Z" fill="#20169A"/>
</g>
</g>
<g id="8">
<g id="Group_3">
<path id="Vector_3" d="M612.825 86.847C603.419 86.847 595.796 94.47 595.796 103.876V408.124C595.796 417.53 603.419 425.153 612.825 425.153C622.231 425.153 629.854 417.53 629.854 408.124V103.876C629.854 94.47 622.23 86.847 612.825 86.847Z" fill="#20169A"/>
</g>
</g>
<g id="7">
<g id="Group_4">
<path id="Vector_4" d="M559.468 136.231C550.062 136.231 542.439 143.854 542.439 153.26V358.747C542.439 368.153 550.062 375.776 559.468 375.776C568.874 375.776 576.497 368.153 576.497 358.742V153.259C576.497 143.854 568.873 136.231 559.468 136.231Z" fill="#20169A"/>
</g>
</g>
<g id="6">
<g id="Group_5">
<path id="Vector_5" d="M506.679 162.909C497.273 162.909 489.65 170.532 489.65 179.938V332.062C489.65 341.468 497.273 349.091 506.679 349.091C516.085 349.091 523.708 341.473 523.708 332.062V179.938C523.707 170.532 516.084 162.909 506.679 162.909Z" fill="#20169A"/>
</g>
</g>
<g id="5">
<g id="Group_6">
<path id="Vector_6" d="M453.322 189.02C443.916 189.02 436.293 196.643 436.293 206.049V305.951C436.293 315.357 443.916 322.98 453.322 322.98C462.728 322.98 470.351 315.357 470.351 305.951V206.049C470.35 196.643 462.727 189.02 453.322 189.02Z" fill="#20169A"/>
</g>
</g>
<g id="4">
<g id="Group_7">
<path id="Vector_7" d="M400.532 136.231C391.126 136.231 383.503 143.854 383.503 153.26V358.747C383.503 368.153 391.126 375.776 400.532 375.776C409.938 375.776 417.561 368.153 417.561 358.742V153.259C417.561 143.854 409.938 136.231 400.532 136.231Z" fill="#20169A"/>
</g>
</g>
<g id="3">
<g id="Group_8">
<path id="Vector_8" d="M347.175 86.847C337.769 86.847 330.146 94.47 330.146 103.876V408.124C330.146 417.53 337.769 425.153 347.175 425.153C356.581 425.153 364.204 417.53 364.204 408.124V103.876C364.204 94.47 356.581 86.847 347.175 86.847Z" fill="#20169A"/>
</g>
</g>
<g id="2">
<g id="Group_9">
<path id="Vector_9" d="M294.386 136.231C284.98 136.231 277.357 143.854 277.357 153.26V358.747C277.357 368.153 284.98 375.776 294.386 375.776C303.792 375.776 311.415 368.153 311.415 358.742V153.259C311.415 143.854 303.791 136.231 294.386 136.231Z" fill="#20169A"/>
</g>
</g>
<g id="1">
<g id="Group_10">
<path id="Vector_10" d="M241.029 185.614C231.623 185.614 224 193.237 224 202.643V309.357C224 318.763 231.623 326.386 241.029 326.386C250.435 326.386 258.058 318.768 258.058 309.357V202.643C258.058 193.237 250.434 185.614 241.029 185.614Z" fill="#20169A"/>
</g>
</g>
</g>
</mask>
<g mask="url(#mask0)">
<rect id="Rectangle 1" x="224" width="512" height="512" fill="url(#paint0_linear)" fill-opacity="0.75"/>
</g>
</g>
<path id="VERSOUND FINANCE" d="M68.495 227.31L44.84 294H24.51L0.855 227.31H18.145L34.675 277.66L51.3 227.31H68.495ZM91.5295 240.325V253.815H113.285V266.355H91.5295V280.985H116.135V294H75.2845V227.31H116.135V240.325H91.5295ZM160.691 294L146.821 268.825H142.926V294H126.681V227.31H153.946C159.203 227.31 163.668 228.228 167.341 230.065C171.078 231.902 173.864 234.435 175.701 237.665C177.538 240.832 178.456 244.378 178.456 248.305C178.456 252.738 177.189 256.697 174.656 260.18C172.186 263.663 168.513 266.133 163.636 267.59L179.026 294H160.691ZM142.926 257.33H152.996C155.973 257.33 158.189 256.602 159.646 255.145C161.166 253.688 161.926 251.63 161.926 248.97C161.926 246.437 161.166 244.442 159.646 242.985C158.189 241.528 155.973 240.8 152.996 240.8H142.926V257.33ZM212.784 294.665C207.907 294.665 203.537 293.873 199.674 292.29C195.81 290.707 192.707 288.363 190.364 285.26C188.084 282.157 186.88 278.42 186.754 274.05H204.044C204.297 276.52 205.152 278.42 206.609 279.75C208.065 281.017 209.965 281.65 212.309 281.65C214.715 281.65 216.615 281.112 218.009 280.035C219.402 278.895 220.099 277.343 220.099 275.38C220.099 273.733 219.529 272.372 218.389 271.295C217.312 270.218 215.95 269.332 214.304 268.635C212.72 267.938 210.44 267.147 207.464 266.26C203.157 264.93 199.642 263.6 196.919 262.27C194.195 260.94 191.852 258.977 189.889 256.38C187.925 253.783 186.944 250.395 186.944 246.215C186.944 240.008 189.192 235.163 193.689 231.68C198.185 228.133 204.044 226.36 211.264 226.36C218.61 226.36 224.532 228.133 229.029 231.68C233.525 235.163 235.932 240.04 236.249 246.31H218.674C218.547 244.157 217.755 242.478 216.299 241.275C214.842 240.008 212.974 239.375 210.694 239.375C208.73 239.375 207.147 239.913 205.944 240.99C204.74 242.003 204.139 243.492 204.139 245.455C204.139 247.608 205.152 249.287 207.179 250.49C209.205 251.693 212.372 252.992 216.679 254.385C220.985 255.842 224.469 257.235 227.129 258.565C229.852 259.895 232.195 261.827 234.159 264.36C236.122 266.893 237.104 270.155 237.104 274.145C237.104 277.945 236.122 281.397 234.159 284.5C232.259 287.603 229.472 290.073 225.799 291.91C222.125 293.747 217.787 294.665 212.784 294.665ZM278.641 294.665C272.371 294.665 266.608 293.208 261.351 290.295C256.158 287.382 252.009 283.328 248.906 278.135C245.866 272.878 244.346 266.988 244.346 260.465C244.346 253.942 245.866 248.083 248.906 242.89C252.009 237.697 256.158 233.643 261.351 230.73C266.608 227.817 272.371 226.36 278.641 226.36C284.911 226.36 290.643 227.817 295.836 230.73C301.093 233.643 305.209 237.697 308.186 242.89C311.226 248.083 312.746 253.942 312.746 260.465C312.746 266.988 311.226 272.878 308.186 278.135C305.146 283.328 301.029 287.382 295.836 290.295C290.643 293.208 284.911 294.665 278.641 294.665ZM278.641 279.845C283.961 279.845 288.204 278.072 291.371 274.525C294.601 270.978 296.216 266.292 296.216 260.465C296.216 254.575 294.601 249.888 291.371 246.405C288.204 242.858 283.961 241.085 278.641 241.085C273.258 241.085 268.951 242.827 265.721 246.31C262.554 249.793 260.971 254.512 260.971 260.465C260.971 266.355 262.554 271.073 265.721 274.62C268.951 278.103 273.258 279.845 278.641 279.845ZM337.744 227.31V267.21C337.744 271.2 338.725 274.272 340.689 276.425C342.652 278.578 345.534 279.655 349.334 279.655C353.134 279.655 356.047 278.578 358.074 276.425C360.1 274.272 361.114 271.2 361.114 267.21V227.31H377.359V267.115C377.359 273.068 376.092 278.103 373.559 282.22C371.025 286.337 367.605 289.44 363.299 291.53C359.055 293.62 354.305 294.665 349.049 294.665C343.792 294.665 339.074 293.652 334.894 291.625C330.777 289.535 327.515 286.432 325.109 282.315C322.702 278.135 321.499 273.068 321.499 267.115V227.31H337.744ZM448.426 294H432.181L405.011 252.865V294H388.766V227.31H405.011L432.181 268.635V227.31H448.426V294ZM485.187 227.31C492.217 227.31 498.36 228.703 503.617 231.49C508.873 234.277 512.927 238.203 515.777 243.27C518.69 248.273 520.147 254.068 520.147 260.655C520.147 267.178 518.69 272.973 515.777 278.04C512.927 283.107 508.842 287.033 503.522 289.82C498.265 292.607 492.153 294 485.187 294H460.202V227.31H485.187ZM484.142 279.94C490.285 279.94 495.067 278.262 498.487 274.905C501.907 271.548 503.617 266.798 503.617 260.655C503.617 254.512 501.907 249.73 498.487 246.31C495.067 242.89 490.285 241.18 484.142 241.18H476.447V279.94H484.142ZM592.772 227.31V240.325H565.602V254.385H585.932V267.02H565.602V294H549.357V227.31H592.772ZM617.555 227.31V294H601.31V227.31H617.555ZM688.988 294H672.743L645.573 252.865V294H629.328V227.31H645.573L672.743 268.635V227.31H688.988V294ZM742.278 282.22H717.388L713.398 294H696.393L720.523 227.31H739.333L763.463 294H746.268L742.278 282.22ZM738.098 269.68L729.833 245.265L721.663 269.68H738.098ZM830.467 294H814.222L787.052 252.865V294H770.807V227.31H787.052L814.222 268.635V227.31H830.467V294ZM839.488 260.56C839.488 253.973 840.913 248.115 843.763 242.985C846.613 237.792 850.571 233.77 855.638 230.92C860.768 228.007 866.563 226.55 873.023 226.55C880.939 226.55 887.716 228.64 893.353 232.82C898.989 237 902.758 242.7 904.658 249.92H886.798C885.468 247.133 883.568 245.012 881.098 243.555C878.691 242.098 875.936 241.37 872.833 241.37C867.829 241.37 863.776 243.112 860.673 246.595C857.569 250.078 856.018 254.733 856.018 260.56C856.018 266.387 857.569 271.042 860.673 274.525C863.776 278.008 867.829 279.75 872.833 279.75C875.936 279.75 878.691 279.022 881.098 277.565C883.568 276.108 885.468 273.987 886.798 271.2H904.658C902.758 278.42 898.989 284.12 893.353 288.3C887.716 292.417 880.939 294.475 873.023 294.475C866.563 294.475 860.768 293.05 855.638 290.2C850.571 287.287 846.613 283.265 843.763 278.135C840.913 273.005 839.488 267.147 839.488 260.56ZM930.851 240.325V253.815H952.606V266.355H930.851V280.985H955.456V294H914.606V227.31H955.456V240.325H930.851Z" fill="#F0EFFF"/>
</g>
<defs>
<linearGradient id="paint0_linear" x1="480" y1="0" x2="480" y2="512" gradientUnits="userSpaceOnUse">
<stop stop-color="#11F5EF"/>
<stop offset="1" stop-color="#FF0DB6"/>
</linearGradient>
</defs>
</svg>
